<mxfile host="app.diagrams.net" modified="2022-10-08T10:37:00.032Z" agent="5.0 (Windows NT 10.0; Win64; x64) AppleWebKit/537.36 (KHTML, like Gecko) Chrome/106.0.0.0 Safari/537.36" etag="Ku_jWj1s59GcWyQ7DnsV" version="16.4.7" type="github">
  <diagram id="tB6wkmt5eCBUxdUjmsKH" name="第 1 页">
    <mxGraphModel dx="1422" dy="721" grid="0" gridSize="10" guides="1" tooltips="1" connect="1" arrows="1" fold="1" page="1" pageScale="1" pageWidth="1169" pageHeight="1654" math="0" shadow="0">
      <root>
        <mxCell id="0" />
        <mxCell id="1" parent="0" />
        <mxCell id="B6lYyr0ZHgbN_AfWHmnG-25" style="edgeStyle=orthogonalEdgeStyle;rounded=0;orthogonalLoop=1;jettySize=auto;html=1;entryX=1;entryY=0.5;entryDx=0;entryDy=0;fontSize=8;" edge="1" parent="1" source="B6lYyr0ZHgbN_AfWHmnG-12" target="B6lYyr0ZHgbN_AfWHmnG-9">
          <mxGeometry relative="1" as="geometry" />
        </mxCell>
        <mxCell id="B6lYyr0ZHgbN_AfWHmnG-12" value="other svr" style="rounded=1;whiteSpace=wrap;html=1;fontSize=24;" vertex="1" parent="1">
          <mxGeometry x="680" y="150" width="120" height="60" as="geometry" />
        </mxCell>
        <mxCell id="B6lYyr0ZHgbN_AfWHmnG-15" value="" style="group" vertex="1" connectable="0" parent="1">
          <mxGeometry x="120" y="50" width="210" height="60" as="geometry" />
        </mxCell>
        <mxCell id="B6lYyr0ZHgbN_AfWHmnG-26" value="" style="edgeStyle=orthogonalEdgeStyle;rounded=0;orthogonalLoop=1;jettySize=auto;html=1;fontSize=18;" edge="1" parent="B6lYyr0ZHgbN_AfWHmnG-15" source="B6lYyr0ZHgbN_AfWHmnG-1" target="B6lYyr0ZHgbN_AfWHmnG-8">
          <mxGeometry relative="1" as="geometry" />
        </mxCell>
        <mxCell id="B6lYyr0ZHgbN_AfWHmnG-1" value="client" style="shape=umlActor;verticalLabelPosition=bottom;verticalAlign=top;html=1;outlineConnect=0;" vertex="1" parent="B6lYyr0ZHgbN_AfWHmnG-15">
          <mxGeometry width="30" height="60" as="geometry" />
        </mxCell>
        <mxCell id="B6lYyr0ZHgbN_AfWHmnG-8" value="gatesvr1" style="rounded=1;whiteSpace=wrap;html=1;fontSize=24;" vertex="1" parent="B6lYyr0ZHgbN_AfWHmnG-15">
          <mxGeometry x="90" width="120" height="60" as="geometry" />
        </mxCell>
        <mxCell id="B6lYyr0ZHgbN_AfWHmnG-16" value="" style="group" vertex="1" connectable="0" parent="1">
          <mxGeometry x="120" y="150" width="210" height="60" as="geometry" />
        </mxCell>
        <mxCell id="B6lYyr0ZHgbN_AfWHmnG-27" value="" style="edgeStyle=orthogonalEdgeStyle;rounded=0;orthogonalLoop=1;jettySize=auto;html=1;fontSize=18;" edge="1" parent="B6lYyr0ZHgbN_AfWHmnG-16" source="B6lYyr0ZHgbN_AfWHmnG-17" target="B6lYyr0ZHgbN_AfWHmnG-18">
          <mxGeometry relative="1" as="geometry" />
        </mxCell>
        <mxCell id="B6lYyr0ZHgbN_AfWHmnG-17" value="client" style="shape=umlActor;verticalLabelPosition=bottom;verticalAlign=top;html=1;outlineConnect=0;" vertex="1" parent="B6lYyr0ZHgbN_AfWHmnG-16">
          <mxGeometry width="30" height="60" as="geometry" />
        </mxCell>
        <mxCell id="B6lYyr0ZHgbN_AfWHmnG-18" value="gatesvr2" style="rounded=1;whiteSpace=wrap;html=1;fontSize=24;" vertex="1" parent="B6lYyr0ZHgbN_AfWHmnG-16">
          <mxGeometry x="90" width="120" height="60" as="geometry" />
        </mxCell>
        <mxCell id="B6lYyr0ZHgbN_AfWHmnG-19" value="" style="group" vertex="1" connectable="0" parent="1">
          <mxGeometry x="120" y="250" width="210" height="60" as="geometry" />
        </mxCell>
        <mxCell id="B6lYyr0ZHgbN_AfWHmnG-28" value="" style="edgeStyle=orthogonalEdgeStyle;rounded=0;orthogonalLoop=1;jettySize=auto;html=1;fontSize=18;" edge="1" parent="B6lYyr0ZHgbN_AfWHmnG-19" source="B6lYyr0ZHgbN_AfWHmnG-20" target="B6lYyr0ZHgbN_AfWHmnG-21">
          <mxGeometry relative="1" as="geometry" />
        </mxCell>
        <mxCell id="B6lYyr0ZHgbN_AfWHmnG-20" value="client" style="shape=umlActor;verticalLabelPosition=bottom;verticalAlign=top;html=1;outlineConnect=0;" vertex="1" parent="B6lYyr0ZHgbN_AfWHmnG-19">
          <mxGeometry width="30" height="60" as="geometry" />
        </mxCell>
        <mxCell id="B6lYyr0ZHgbN_AfWHmnG-21" value="gatesvr3" style="rounded=1;whiteSpace=wrap;html=1;fontSize=24;" vertex="1" parent="B6lYyr0ZHgbN_AfWHmnG-19">
          <mxGeometry x="90" width="120" height="60" as="geometry" />
        </mxCell>
        <mxCell id="B6lYyr0ZHgbN_AfWHmnG-22" style="edgeStyle=orthogonalEdgeStyle;rounded=0;orthogonalLoop=1;jettySize=auto;html=1;entryX=0;entryY=0.5;entryDx=0;entryDy=0;fontSize=8;" edge="1" parent="1" source="B6lYyr0ZHgbN_AfWHmnG-8" target="B6lYyr0ZHgbN_AfWHmnG-9">
          <mxGeometry relative="1" as="geometry" />
        </mxCell>
        <mxCell id="B6lYyr0ZHgbN_AfWHmnG-23" style="edgeStyle=orthogonalEdgeStyle;rounded=0;orthogonalLoop=1;jettySize=auto;html=1;fontSize=8;" edge="1" parent="1" source="B6lYyr0ZHgbN_AfWHmnG-18" target="B6lYyr0ZHgbN_AfWHmnG-9">
          <mxGeometry relative="1" as="geometry" />
        </mxCell>
        <mxCell id="B6lYyr0ZHgbN_AfWHmnG-24" style="edgeStyle=orthogonalEdgeStyle;rounded=0;orthogonalLoop=1;jettySize=auto;html=1;fontSize=8;entryX=0;entryY=0.5;entryDx=0;entryDy=0;" edge="1" parent="1" source="B6lYyr0ZHgbN_AfWHmnG-21" target="B6lYyr0ZHgbN_AfWHmnG-9">
          <mxGeometry relative="1" as="geometry">
            <mxPoint x="560" y="180" as="targetPoint" />
            <Array as="points">
              <mxPoint x="400" y="280" />
              <mxPoint x="400" y="180" />
            </Array>
          </mxGeometry>
        </mxCell>
        <mxCell id="B6lYyr0ZHgbN_AfWHmnG-9" value="online&lt;br&gt;svr" style="ellipse;whiteSpace=wrap;html=1;aspect=fixed;fontSize=24;container=0;" vertex="1" parent="1">
          <mxGeometry x="470" y="140" width="80" height="80" as="geometry" />
        </mxCell>
        <mxCell id="B6lYyr0ZHgbN_AfWHmnG-10" value="&lt;font style=&quot;font-size: 18px&quot;&gt;group&lt;/font&gt;" style="text;html=1;strokeColor=none;fillColor=none;align=center;verticalAlign=middle;whiteSpace=wrap;rounded=0;fontSize=24;container=0;" vertex="1" parent="1">
          <mxGeometry x="480" y="220" width="60" height="30" as="geometry" />
        </mxCell>
        <mxCell id="B6lYyr0ZHgbN_AfWHmnG-29" value="online svr集群" style="text;html=1;strokeColor=none;fillColor=none;align=center;verticalAlign=middle;whiteSpace=wrap;rounded=0;fontSize=18;" vertex="1" parent="1">
          <mxGeometry x="300" y="707" width="140" height="30" as="geometry" />
        </mxCell>
        <mxCell id="B6lYyr0ZHgbN_AfWHmnG-31" value="online&lt;br&gt;svr1" style="ellipse;whiteSpace=wrap;html=1;aspect=fixed;fontSize=24;container=0;" vertex="1" parent="1">
          <mxGeometry x="250" y="470" width="80" height="80" as="geometry" />
        </mxCell>
        <mxCell id="B6lYyr0ZHgbN_AfWHmnG-32" value="online&lt;br&gt;svr3" style="ellipse;whiteSpace=wrap;html=1;aspect=fixed;fontSize=24;container=0;" vertex="1" parent="1">
          <mxGeometry x="330" y="600" width="80" height="80" as="geometry" />
        </mxCell>
        <mxCell id="B6lYyr0ZHgbN_AfWHmnG-33" value="online&lt;br&gt;svr2" style="ellipse;whiteSpace=wrap;html=1;aspect=fixed;fontSize=24;container=0;" vertex="1" parent="1">
          <mxGeometry x="420" y="470" width="80" height="80" as="geometry" />
        </mxCell>
        <mxCell id="B6lYyr0ZHgbN_AfWHmnG-34" value="" style="endArrow=classic;startArrow=classic;html=1;rounded=0;fontSize=18;entryX=0.5;entryY=1;entryDx=0;entryDy=0;exitX=0;exitY=0.5;exitDx=0;exitDy=0;" edge="1" parent="1" source="B6lYyr0ZHgbN_AfWHmnG-32" target="B6lYyr0ZHgbN_AfWHmnG-31">
          <mxGeometry width="50" height="50" relative="1" as="geometry">
            <mxPoint x="170" y="690" as="sourcePoint" />
            <mxPoint x="220" y="640" as="targetPoint" />
          </mxGeometry>
        </mxCell>
        <mxCell id="B6lYyr0ZHgbN_AfWHmnG-35" value="" style="endArrow=classic;startArrow=classic;html=1;rounded=0;fontSize=18;entryX=1;entryY=0.5;entryDx=0;entryDy=0;" edge="1" parent="1" source="B6lYyr0ZHgbN_AfWHmnG-33" target="B6lYyr0ZHgbN_AfWHmnG-31">
          <mxGeometry width="50" height="50" relative="1" as="geometry">
            <mxPoint x="360.01110186042115" y="625.3525765580634" as="sourcePoint" />
            <mxPoint x="319.03999999999996" y="556" as="targetPoint" />
          </mxGeometry>
        </mxCell>
        <mxCell id="B6lYyr0ZHgbN_AfWHmnG-36" value="" style="endArrow=classic;startArrow=classic;html=1;rounded=0;fontSize=18;entryX=0.5;entryY=1;entryDx=0;entryDy=0;exitX=1;exitY=0.5;exitDx=0;exitDy=0;" edge="1" parent="1" source="B6lYyr0ZHgbN_AfWHmnG-32" target="B6lYyr0ZHgbN_AfWHmnG-33">
          <mxGeometry width="50" height="50" relative="1" as="geometry">
            <mxPoint x="360.01110186042115" y="625.3525765580634" as="sourcePoint" />
            <mxPoint x="319.03999999999996" y="556" as="targetPoint" />
          </mxGeometry>
        </mxCell>
      </root>
    </mxGraphModel>
  </diagram>
</mxfile>
